<svg width="190" height="183" viewBox="0 0 190 183" fill="none" xmlns="http://www.w3.org/2000/svg">
<g filter="url(#filter0_d)">
<path fill-rule="evenodd" clip-rule="evenodd" d="M50 29.7556V83.6252L91.9682 107.661L139.355 79.6363V25.7667" fill="#FF9271"/>
</g>
<path d="M91.9682 53.7917V107.661L139.355 79.6363V25.7667L91.9682 53.7917Z" fill="#DF5C34"/>
<path d="M50 29.7557L98.6939 2L139.355 25.7667L91.9682 53.7917L50 29.7557Z" fill="#F47B56"/>
<path fill-rule="evenodd" clip-rule="evenodd" d="M107.29 17.4939C102.949 15.1168 98.0196 14.031 93.0827 14.3643C87.903 14.4557 82.8423 15.9349 78.4272 18.6483C76.1116 19.9666 74.2694 21.9816 73.1619 24.4072C72.2387 26.5075 72.2387 28.8994 73.1619 30.9998C74.2799 33.3821 76.1414 35.3359 78.4656 36.5663C81.3454 38.1943 84.5202 39.232 87.8047 39.6189C91.4182 40.1191 95.0874 40.0542 98.6811 39.4265C101.979 38.9248 105.147 37.7833 108.007 36.0661C109 35.4591 109.924 34.7451 110.762 33.9369C111.397 33.3343 111.964 32.6633 112.453 31.9361C112.791 31.3966 113.066 30.8199 113.273 30.2174C113.416 29.8416 113.532 29.4558 113.618 29.063C113.626 28.9178 113.626 28.7722 113.618 28.6269L108.866 28.3576L108.686 29.1656C108.428 29.9796 107.99 30.7249 107.405 31.3461C106.53 32.3618 105.496 33.2281 104.343 33.9113C101.012 35.887 97.198 36.8992 93.3262 36.8356C89.4372 37.0001 85.579 36.081 82.1807 34.1806C79.0677 32.3465 77.4664 30.0635 77.4664 27.4983C77.4407 24.8817 78.9396 22.6286 81.963 20.7389C85.2852 18.7128 89.0905 17.6186 92.9803 17.5709C96.6506 17.3291 100.313 18.1435 103.536 19.918C106.568 21.7137 107.2 23.163 105.432 24.2661C104.137 24.9639 102.577 24.9639 101.282 24.2661L92.9418 19.3537L89.342 21.5983L90.6231 22.3678H89.9185C89.2287 22.4062 88.5454 22.5224 87.8816 22.7141C87.0491 22.9304 86.2543 23.2721 85.5244 23.7274C83.973 24.464 82.9781 26.023 82.9622 27.7419C83.0391 29.3324 84.0639 30.7176 86.0624 31.8976C88.1758 33.1122 90.5827 33.7202 93.0187 33.6548C95.3731 33.7009 97.6936 33.0879 99.7187 31.8848C100.588 31.3925 101.312 30.6804 101.82 29.8198C102.125 29.357 102.302 28.8215 102.332 28.2678C102.304 28.0341 102.243 27.8053 102.153 27.588L103.126 27.665C104.018 27.6912 104.91 27.6006 105.778 27.3956C106.835 27.182 107.846 26.7825 108.763 26.2156C110.698 25.0485 111.518 23.6633 111.325 22.0728C111.133 20.4824 109.775 18.9561 107.29 17.4939ZM96.1445 25.6256C96.9758 25.9867 97.5752 26.7356 97.7459 27.6265H97.7971C97.8103 28.4464 97.3377 29.1965 96.5929 29.5376C95.6089 30.1195 94.4814 30.4128 93.339 30.3841C92.1504 30.4116 90.9768 30.1145 89.9441 29.5248C89.1231 29.1645 88.5498 28.4009 88.4324 27.5111C88.4517 26.6566 88.9461 25.8845 89.7135 25.5102C90.6482 24.9501 91.7252 24.6739 92.8137 24.715C93.9851 24.7165 95.1349 25.0309 96.1445 25.6256Z" fill="#3E2928"/>
<defs>
<filter id="filter0_d" x="0" y="0.766724" width="189.355" height="181.895" filterUnits="userSpaceOnUse" color-interpolation-filters="sRGB">
<feFlood flood-opacity="0" result="BackgroundImageFix"/>
<feColorMatrix in="SourceAlpha" type="matrix" values="0 0 0 0 0 0 0 0 0 0 0 0 0 0 0 0 0 0 127 0" result="hardAlpha"/>
<feOffset dy="25"/>
<feGaussianBlur stdDeviation="25"/>
<feColorMatrix type="matrix" values="0 0 0 0 0.209139 0 0 0 0 0.0691446 0 0 0 0 0.478091 0 0 0 0.497159 0"/>
<feBlend mode="normal" in2="BackgroundImageFix" result="effect1_dropShadow"/>
<feBlend mode="normal" in="SourceGraphic" in2="effect1_dropShadow" result="shape"/>
</filter>
</defs>
</svg>
